<?xml version="1.0" encoding="UTF-8"?>
<svg xmlns="http://www.w3.org/2000/svg" viewBox="0 0 3506.23 469.45" fill="url(#grad1)">
  <defs>
    <linearGradient id="grad1" x1="0%" y1="50%" x2="100%" y2="50%">
      <stop offset="0%" stop-color="#4CA1AF"></stop>
      <stop offset="100%" stop-color="#C4E0E5"></stop>
    </linearGradient>
  </defs>
  <path
    d="m382.01,30.51h110.06l27.85,185.65,9.95,72.93h2.65l37.79-72.93,100.78-185.65h110.06l-86.2,430.98h-99.46l30.5-143.22c9.28-45.09,27.85-107.41,42.43-151.17h-1.99l-53.71,100.78-91.5,156.48h-39.78l-27.85-156.48-13.26-100.78h-1.99c-3.31,43.76-7.96,107.41-16.58,151.17l-29.17,143.22h-96.8L381.98,30.51h.03Zm600.71,91.5c80.89,0,110.06,57.02,110.06,125.98,0,33.15-13.26,70.28-18.57,79.56h-179.02c1.33,43.76,30.5,62.33,68.96,62.33,18.56,0,41.11-10.61,55.7-21.22l37.13,66.3c-26.52,18.57-68.96,34.48-123.33,34.48-80.89,0-137.91-54.37-137.91-143.22,0-122,98.13-204.22,186.98-204.22h0Zm21.22,141.89c1.33-5.3,2.65-13.26,2.65-21.22,0-22.54-9.28-39.78-37.13-39.78-25.2,0-51.72,18.56-66.3,61h100.78Zm373.96-167.09L1396.47.01h106.09l-92.83,461.48h-86.2v-41.11h-1.33c-29.17,30.5-67.63,49.06-99.46,49.06-58.35,0-92.83-43.76-92.83-122,0-125.98,84.87-225.43,176.37-225.43,27.85,0,51.72,14.59,63.65,37.13h1.33l6.63-62.33h0Zm-49.06,242.67l21.22-106.09c-7.96-17.24-23.87-25.2-35.8-25.2-38.46,0-74.26,51.72-74.26,125.98,0,34.48,11.93,49.07,30.5,49.07,17.24,0,39.78-7.96,58.35-43.76h0ZM1579.45,30.51h110.06l27.85,185.65,9.95,72.93h2.65l37.79-72.93,100.78-185.65h110.06l-86.2,430.98h-99.46l30.5-143.22c9.28-45.09,27.85-107.41,42.43-151.17h-1.99l-53.71,100.78-91.5,156.48h-39.78l-27.85-156.48-13.26-100.78h-1.99c-3.31,43.76-7.96,107.41-16.58,151.17l-29.17,143.22h-96.8l86.19-430.98h.03Zm413.74,301.02c0-128.63,96.8-209.52,188.3-209.52,79.57,0,132.61,55.7,132.61,137.91,0,128.63-96.8,209.52-188.3,209.52-79.56,0-132.61-55.7-132.61-137.91Zm213.5-70.28c0-33.15-11.93-54.37-37.13-54.37-38.46,0-68.96,51.72-68.96,123.33,0,33.15,11.93,54.37,37.13,54.37,38.46,0,68.96-51.72,68.96-123.33Zm393.84-164.44L2619.1.01h106.09l-92.83,461.48h-86.2v-41.11h-1.33c-29.17,30.5-67.63,49.06-99.46,49.06-58.35,0-92.83-43.76-92.83-122,0-125.98,84.87-225.43,176.37-225.43,27.85,0,51.72,14.59,63.65,37.13h1.33l6.63-62.33h.01Zm-49.06,242.67l21.22-106.09c-7.96-17.24-23.87-25.2-35.8-25.2-38.46,0-74.26,51.72-74.26,125.98,0,34.48,11.93,49.07,30.5,49.07,17.24,0,39.78-7.96,58.35-43.76h-.01Zm351.4-217.47c80.89,0,110.06,57.02,110.06,125.98,0,33.15-13.26,70.28-18.57,79.56h-179.02c1.33,43.76,30.5,62.33,68.96,62.33,18.57,0,41.11-10.61,55.7-21.22l37.13,66.3c-26.52,18.57-68.96,34.48-123.33,34.48-80.89,0-137.91-54.37-137.91-143.22,0-122,98.13-204.22,186.98-204.22h0Zm21.22,141.89c1.33-5.3,2.65-13.26,2.65-21.22,0-22.54-9.28-39.78-37.13-39.78-25.2,0-51.72,18.56-66.3,61h100.78Zm129.96,132.6c0-13.26,1.33-26.52,5.3-45.09L3129.63,0h106.09l-71.61,355.39c-1.33,6.63-1.33,9.28-1.33,12.6,0,12.6,6.63,16.58,13.26,16.58,3.98,0,6.63,0,11.93-1.33l-3.98,78.24c-11.93,3.98-30.5,7.96-54.37,7.96-54.37,0-75.59-27.85-75.59-72.93h.02Zm160.45,7.96l61-50.39c23.87,27.85,46.41,38.46,66.3,38.46s37.13-9.28,37.13-22.54c0-17.24-21.22-23.87-55.7-43.76-32.49-18.57-63.65-49.07-63.65-92.83,0-63.65,59.67-111.39,133.93-111.39,47.74,0,84.87,23.87,112.72,53.04l-57.02,54.37c-15.91-15.91-34.48-29.17-55.7-29.17s-34.48,10.61-34.48,23.87c0,18.56,27.85,26.52,53.04,41.11,31.83,17.24,66.3,43.76,66.3,92.83,0,66.3-59.67,111.39-143.22,111.39-38.46,0-91.5-21.22-120.67-64.98h.02Zm0,0l61-50.39c23.87,27.85,46.41,38.46,66.3,38.46s37.13-9.28,37.13-22.54c0-17.24-21.22-23.87-55.7-43.76-32.49-18.57-63.65-49.07-63.65-92.83,0-63.65,59.67-111.39,133.93-111.39,47.74,0,84.87,23.87,112.72,53.04l-57.02,54.37c-15.91-15.91-34.48-29.17-55.7-29.17s-34.48,10.61-34.48,23.87c0,18.56,27.85,26.52,53.04,41.11,31.83,17.24,66.3,43.76,66.3,92.83,0,66.3-59.67,111.39-143.22,111.39-38.46,0-91.5-21.22-120.67-64.98h.02Zm0,0l61-50.39c23.87,27.85,46.41,38.46,66.3,38.46s37.13-9.28,37.13-22.54c0-17.24-21.22-23.87-55.7-43.76-32.49-18.57-63.65-49.07-63.65-92.83,0-63.65,59.67-111.39,133.93-111.39,47.74,0,84.87,23.87,112.72,53.04l-57.02,54.37c-15.91-15.91-34.48-29.17-55.7-29.17s-34.48,10.61-34.48,23.87c0,18.56,27.85,26.52,53.04,41.11,31.83,17.24,66.3,43.76,66.3,92.83,0,66.3-59.67,111.39-143.22,111.39-38.46,0-91.5-21.22-120.67-64.98h.02ZM140.37,153.42c44.19,0,88.38.08,132.58-.09,5.56-.02,6.94.62,5.66,7.03l-14.79,73.95c-1.01,5.03-2.2,7-7.84,6.98-82.96-.22-165.92-.22-248.88-.01-5.99.01-7.1-1.99-7.04-7.42.27-24.39.38-48.78-.06-73.17-.11-6.44,2.01-7.42,7.8-7.39,44.19.24,88.38.13,132.58.13h0Zm110.5,115.52c3.06,0,5.37,2.81,4.77,5.81-5.22,26.27-10.36,51.91-15.33,77.58-.72,3.71-2.32,4.57-5.94,4.56-56.4-.12-112.79-.14-169.19,0-4.53.01-6.03-1.12-5.99-5.83.22-25.47.17-50.95.04-76.43-.02-3.88.52-5.8,5.19-5.79,61.77.14,123.53.1,186.46.1h-.01Zm-17.13,114.86c-4.58,23.79-9.13,46.56-13,65.91-.58,2.89-1.8,4.34-5.68,4.32-2.84-.02-18.4.34-22.07.34-14.7-.05-29.4-.05-44.1,0-10.81.03-21.59,1.18-32.05,3.49-11.46,2.53-21.05,5.63-28.43,8.36-1.13.42-2.37-.32-2.31-1.36.59-10.23,4.74-44.55,36.52-67.37,1.6-1.16,3.28-2.28,5.03-3.37,12.03-7.5,24.33-11.39,34.3-13.46,5.57-1.15,11.28-1.7,17.01-1.7h.07c7.93,0,15.84.02,23.76.02,8.63,0,17.25,0,25.88-.07,4.3-.03,5.97.22,5.07,4.9h0Zm59.4-342.31h0c-18.4-4.66-22.02-6.35-36.84-8.58-27.17-4.1-56.12-8.48-88.63,4.43-31.69,12.58-48.46,34.3-62.6,52.63-17.18,22.25-14.62,29.31-13.86,31.03,4.58,10.27,25.32,10.5,50.42,10.52,6.98,0,13.34-.19,19.17-.51,17.88-.98,24.26-2.51,38.44-3.92,17.35-1.73,46-3.21,79,1.52.31.05.61.04.89,0,1.77,0,3.05-.05,4-.34,1.67-.5,2.33-1.75,2.9-4.78,4.64-24.69,9.35-49.38,14.7-73.93,1.39-6.38-1.53-6.7-7.58-8.07h-.01Zm-129.39,34.2c-3.41,4.98-10.62,8.15-13.22,5.92-2.29-1.97-1.11-8.24,2.28-11.85,3.76-4,10.72-5.24,12.76-2.73,1.7,2.1-.32,6.47-1.82,8.66Z"></path>
</svg>
